<svg xmlns="http://www.w3.org/2000/svg" viewBox="0 0 425.2 124.72"><defs><style>.a{fill:#ededed;}.b{fill:#575756;}.c{font-size:13px;fill:#3c3c3b;font-family:HelveticaNeue-ThinItalic, Helvetica Neue;font-weight:200;font-style:italic;}.d{letter-spacing:-0.02em;}.e{letter-spacing:-0.01em;}.f{letter-spacing:0.02em;}.g{letter-spacing:-0.01em;}.h{letter-spacing:-0.01em;}.i{letter-spacing:0em;}.j{letter-spacing:-0.05em;}.k{letter-spacing:0.04em;}</style></defs><title>bchwtz-ghbanner</title><path class="a" d="M23,67.27,18.81,87.18H19A18.07,18.07,0,0,1,24.3,83a15.76,15.76,0,0,1,6.76-1.3,15,15,0,0,1,6.72,1.38,12.74,12.74,0,0,1,4.54,3.76,15.63,15.63,0,0,1,2.61,5.53,26.55,26.55,0,0,1,.83,6.72,33.56,33.56,0,0,1-1.34,9.36,25.25,25.25,0,0,1-4,8.22,20.91,20.91,0,0,1-6.63,5.81,18.41,18.41,0,0,1-9.17,2.21,18.7,18.7,0,0,1-7.79-1.58,9.43,9.43,0,0,1-5-5.84h-.16l-1.35,6.4H0L11.78,67.27ZM20.94,91.93a13.81,13.81,0,0,0-3.75,4.34A20.14,20.14,0,0,0,15.06,102a27.12,27.12,0,0,0-.68,5.77,9,9,0,0,0,2.14,6.21,7.61,7.61,0,0,0,6,2.41,9.09,9.09,0,0,0,5.5-1.66,13.44,13.44,0,0,0,3.71-4.23,19.61,19.61,0,0,0,2.13-5.57,25.66,25.66,0,0,0,.68-5.61,11.06,11.06,0,0,0-1.82-6.48q-1.81-2.61-6.17-2.61A9,9,0,0,0,20.94,91.93Z"/><path class="a" d="M78.28,91.77c-1.24-1.06-3.12-1.58-5.65-1.58a8.54,8.54,0,0,0-5.38,1.7,12.65,12.65,0,0,0-3.55,4.3,21.2,21.2,0,0,0-1.94,5.65,30.18,30.18,0,0,0-.59,5.66,14.59,14.59,0,0,0,.39,3.43,7.28,7.28,0,0,0,1.35,2.81,6.91,6.91,0,0,0,2.41,1.9,9.29,9.29,0,0,0,7,.07,9.48,9.48,0,0,0,2.61-1.65,9,9,0,0,0,1.9-2.42A15.86,15.86,0,0,0,78,108.76H89.23a24.25,24.25,0,0,1-7.79,11.81q-5.25,4.16-13.32,4.15-8.61,0-13.39-4.22T50,107.26a30.82,30.82,0,0,1,1.54-9.84A24.64,24.64,0,0,1,56,89.28a21.22,21.22,0,0,1,7.23-5.53,22.65,22.65,0,0,1,9.8-2,27.66,27.66,0,0,1,7,.87,17.16,17.16,0,0,1,5.81,2.69A12.92,12.92,0,0,1,89.82,90a16.15,16.15,0,0,1,1.54,7H80.14Q80.14,93.35,78.28,91.77Z"/><path class="a" d="M115.15,67.27,111,87.58h.16a11.56,11.56,0,0,1,1.82-1.9,14.91,14.91,0,0,1,2.84-1.89,19.3,19.3,0,0,1,3.87-1.47,19.55,19.55,0,0,1,5-.59q11.94,0,11.94,11a11.5,11.5,0,0,1-.16,1.62q-.16,1-.36,2c-.13.69-.26,1.33-.39,1.94s-.23,1.09-.28,1.46l-5.06,24H119.1l5-24c.1-.63.25-1.47.43-2.53a14.67,14.67,0,0,0,.28-2.45,3.55,3.55,0,0,0-1.7-3,6.3,6.3,0,0,0-3.67-1.19,9.68,9.68,0,0,0-4.47,1,11.08,11.08,0,0,0-3.32,2.57,14,14,0,0,0-2.29,3.64A21.55,21.55,0,0,0,108,102l-4.59,21.74H92.23l11.7-56.43Z"/><path class="a" d="M174.26,123.7,172.84,95h-.16L160,123.7H148.26l-4.5-40.86h11.46l1.58,28.77H157l12.56-28.77H180.9l1.27,28.53h.15l13.12-28.53H207.3L186,123.7Z"/><path class="a" d="M235.83,82.84l-1.74,7.51h-8l-4.19,20.31a10.68,10.68,0,0,0-.24,1.14,6.38,6.38,0,0,0-.08.75,3.28,3.28,0,0,0,.36,1.7,2.48,2.48,0,0,0,.91.91,2.76,2.76,0,0,0,1.22.36c.45,0,.88,0,1.3,0a33.47,33.47,0,0,0,4-.24l-1.9,8.61c-1.16.11-2.32.2-3.48.28s-2.34.12-3.55.12a21.41,21.41,0,0,1-3.92-.36,10.19,10.19,0,0,1-3.47-1.26,6.73,6.73,0,0,1-2.45-2.49,7.57,7.57,0,0,1-.83-4.11,12,12,0,0,1,.15-1.78c.11-.66.24-1.35.4-2.09L215,90.35h-7.35l1.74-7.51h7.19l2.53-12.41h11.22l-2.52,12.41Z"/><path class="a" d="M258.35,91.29H238.67l1.82-8.45h34.3l-1.74,8.3-25.68,24.1h22.52l-1.82,8.46h-37l1.74-8.3Z"/><path class="b" d="M418,7.35v110H6.77V7.35H418m7-7H-.23v124H425V.35Z"/><text class="c" transform="translate(64.16 33.61)"><tspan class="d">W</tspan><tspan x="11.53" y="0">e have not succeeded in answering all our p</tspan><tspan class="e" x="249.78" y="0">r</tspan><tspan x="253.32" y="0">oblems. </tspan><tspan x="-0.4" y="15.6">The answers we have found only se</tspan><tspan class="f" x="192.79" y="15.6">r</tspan><tspan x="196.72" y="15.6">ve </tspan><tspan class="g" x="212.62" y="15.6">t</tspan><tspan x="215.81" y="15.6">o </tspan><tspan class="h" x="226.4" y="15.6">r</tspan><tspan x="229.86" y="15.6">aise a whole </tspan><tspan x="2.87" y="31.2">set of new questions. In some ways we feel we a</tspan><tspan class="i" x="267.1" y="31.2">r</tspan><tspan x="270.67" y="31.2">e as </tspan><tspan x="-1.05" y="46.8">confused as eve</tspan><tspan class="j" x="88.07" y="46.8">r</tspan><tspan x="91.06" y="46.8">, but we believe we a</tspan><tspan class="i" x="205.74" y="46.8">r</tspan><tspan x="209.31" y="46.8">e confused on a </tspan><tspan x="26.49" y="62.4">higher level and about mo</tspan><tspan class="i" x="165.96" y="62.4">r</tspan><tspan x="169.53" y="62.4">e impo</tspan><tspan class="k" x="206.62" y="62.4">r</tspan><tspan x="210.69" y="62.4">tant things.</tspan></text></svg>