<svg xmlns="http://www.w3.org/2000/svg" viewBox="0 0 425.2 96.38"><defs><style>.a{fill:#ededed;}.b{fill:#575756;}.c{font-size:11px;fill:#1d1d1b;font-family:HelveticaNeue-ThinItalic, Helvetica Neue;font-weight:200;font-style:italic;}.d{letter-spacing:-0.02em;}.e{letter-spacing:-0.01em;}.f{letter-spacing:0.02em;}.g{letter-spacing:-0.01em;}.h{letter-spacing:-0.01em;}.i{letter-spacing:0em;}.j{letter-spacing:-0.05em;}.k{letter-spacing:0em;}.l{letter-spacing:0.03em;}</style></defs><title>GitHub Banner</title><path class="a" d="M18.29,41.9,14.1,61.81h.15a17.93,17.93,0,0,1,5.34-4.15,15.61,15.61,0,0,1,6.76-1.3,14.89,14.89,0,0,1,6.71,1.38,12.77,12.77,0,0,1,4.55,3.76A16,16,0,0,1,40.22,67a26.55,26.55,0,0,1,.83,6.72,33.21,33.21,0,0,1-1.35,9.36,25.43,25.43,0,0,1-4,8.22A20.84,20.84,0,0,1,29,97.14a18.48,18.48,0,0,1-9.16,2.21,18.67,18.67,0,0,1-7.79-1.58,9.44,9.44,0,0,1-5-5.85H6.9L5.56,98.33H-4.71L7.06,41.9ZM16.23,66.56a13.7,13.7,0,0,0-3.75,4.34,20.46,20.46,0,0,0-2.14,5.69,27.08,27.08,0,0,0-.67,5.77,9,9,0,0,0,2.13,6.2,7.62,7.62,0,0,0,6,2.42,9,9,0,0,0,5.49-1.66A13.46,13.46,0,0,0,27,85.09a20.22,20.22,0,0,0,2.13-5.57,25.77,25.77,0,0,0,.67-5.62A11.08,11.08,0,0,0,28,67.42c-1.22-1.73-3.27-2.6-6.17-2.6A9,9,0,0,0,16.23,66.56Z"/><path class="a" d="M73.57,66.4c-1.24-1.06-3.12-1.58-5.65-1.58a8.54,8.54,0,0,0-5.38,1.7A12.56,12.56,0,0,0,59,70.82a20.85,20.85,0,0,0-1.94,5.65,29.35,29.35,0,0,0-.59,5.65,14.62,14.62,0,0,0,.39,3.44,7,7,0,0,0,1.35,2.81,6.77,6.77,0,0,0,2.41,1.89A8.06,8.06,0,0,0,64.2,91a8.25,8.25,0,0,0,3.36-.64,9.58,9.58,0,0,0,2.61-1.66,9,9,0,0,0,1.9-2.41,16.59,16.59,0,0,0,1.22-2.88H84.51A24.17,24.17,0,0,1,76.73,95.2c-3.51,2.77-7.94,4.15-13.32,4.15q-8.61,0-13.39-4.23c-3.19-2.81-4.79-7.23-4.79-13.23a30.83,30.83,0,0,1,1.55-9.84,24.29,24.29,0,0,1,4.5-8.14,21.1,21.1,0,0,1,7.23-5.53,22.61,22.61,0,0,1,9.8-2,27.71,27.71,0,0,1,7,.87,16.92,16.92,0,0,1,5.8,2.69,13,13,0,0,1,4,4.74,16.29,16.29,0,0,1,1.54,7H75.42Q75.42,68,73.57,66.4Z"/><path class="a" d="M110.44,41.9l-4.19,20.31h.15a12.47,12.47,0,0,1,1.82-1.9,15.51,15.51,0,0,1,2.85-1.9,18.89,18.89,0,0,1,8.85-2q11.92,0,11.93,11a10.17,10.17,0,0,1-.16,1.62c-.1.65-.22,1.33-.35,2s-.27,1.33-.4,1.94-.22,1.09-.27,1.46l-5.06,24H114.39l5-24c.1-.63.24-1.48.43-2.53a15.82,15.82,0,0,0,.28-2.45,3.55,3.55,0,0,0-1.7-3,6.33,6.33,0,0,0-3.68-1.19,9.67,9.67,0,0,0-4.46,1,10.93,10.93,0,0,0-3.32,2.57,14,14,0,0,0-2.29,3.63,22.38,22.38,0,0,0-1.39,4.19L98.66,98.33H87.52L99.21,41.9Z"/><path class="a" d="M169.55,98.33l-1.42-28.69H168L155.32,98.33H143.55L139,57.47H150.5l1.58,28.76h.16l12.57-28.76h11.38L177.45,86h.16l13.12-28.53h11.85L181.25,98.33Z"/><path class="a" d="M231.12,57.47,229.38,65h-8l-4.18,20.32a10.68,10.68,0,0,0-.24,1.14,4.52,4.52,0,0,0-.08.75,3.4,3.4,0,0,0,.35,1.7,2.48,2.48,0,0,0,.91.91,2.84,2.84,0,0,0,1.23.36l1.3,0a33.43,33.43,0,0,0,4-.23l-1.89,8.61c-1.16.11-2.32.2-3.48.28S217,99,215.78,99a21.3,21.3,0,0,1-3.91-.36,10.77,10.77,0,0,1-3.48-1.26,6.88,6.88,0,0,1-2.45-2.49,7.76,7.76,0,0,1-.83-4.11,12.08,12.08,0,0,1,.16-1.78c.11-.66.24-1.36.4-2.09L210.25,65H202.9l1.74-7.5h7.19l2.53-12.41h11.22l-2.53,12.41Z"/><path class="a" d="M253.64,65.92H234l1.82-8.45h34.3l-1.74,8.3-25.69,24.1h22.53l-1.82,8.46h-37l1.74-8.3Z"/><path class="b" d="M418,7V89.46H6.77V7H418m7-7H-.23V96.46H425V0Z"/><text class="c" transform="translate(56.39 29.59)"><tspan class="d">W</tspan><tspan x="9.76" y="0">e have not succeeded in answering all our p</tspan><tspan class="e" x="211.35" y="0">r</tspan><tspan x="214.34" y="0">oblems. The answers </tspan><tspan x="5.07" y="13.2">we have found only se</tspan><tspan class="f" x="107.39" y="13.2">r</tspan><tspan x="110.71" y="13.2">ve </tspan><tspan class="g" x="124.17" y="13.2">t</tspan><tspan x="126.86" y="13.2">o </tspan><tspan class="h" x="135.83" y="13.2">r</tspan><tspan x="138.75" y="13.2">aise a whole set of new questions. In </tspan><tspan x="4.01" y="26.4">some ways we feel we a</tspan><tspan class="i" x="116.1" y="26.4">r</tspan><tspan x="119.12" y="26.4">e as confused as eve</tspan><tspan class="j" x="216.96" y="26.4">r</tspan><tspan x="219.49" y="26.4">, but we believe we </tspan><tspan x="9.9" y="39.6">a</tspan><tspan class="i" x="15.4" y="39.6">r</tspan><tspan x="18.43" y="39.6">e confused on a higher level and about mo</tspan><tspan class="k" x="214.09" y="39.6">r</tspan><tspan x="217.12" y="39.6">e impo</tspan><tspan class="l" x="248.5" y="39.6">r</tspan><tspan x="251.94" y="39.6">tant things.</tspan></text></svg>